<?xml version="1.0" encoding="UTF-8"?>
<svg version="1.1" viewBox="0 0 2048 499" width="500" height="122" xmlns="http://www.w3.org/2000/svg">
<path transform="translate(344)" d="m0 0h54l33 7 22 6 25 10 16 8 15 10 19 14 13 11 11 10 7 8 10 12 11 15 12 21 11 23 7 19 6 24 3 23v18l14-2 4-2 6-10 18-42 15-36 16-38 3-8-1-6-4-3-13-4-3-5 2-5h22l13 4 9 8 8 14 15 37 33 81 6 11 5 4 11 2 1 1v9l-53 1h-17l-2-2v-7l1-2 15-2 4-1 1-6-5-17-7-17h-67l-11 33 1 6 5 2 18 2 1 1v8l-3 2h-61v26l-3 24-2 10h97l581-2h143v10l-1 1-23 1-458 2-273 1h-66l-2-1v-4l-9 25-11 24-14 23-10 13-9 11-14 15-10 9-15 12-15 10-23 13-17 8-27 9-27 6-18 3h-43l-36-7-22-6-21-8-20-10-18-11-15-11-13-11-14-13-7-8-11-13-16-24-9-16-9-20-8-24-5-21-3-20-1-15v-22l1-18 5-29 7-24 8-20 11-22 11-18 12-15 9-11 12-13 8-7 15-12 25-17 19-10 14-6 24-8 26-6zm32 31-1 1-2 17v14h6l1-13 1-4 5 18h6l5-10 3-9v10l-1 10h6l1-1 2-29-2-2h-5l-3 3-7 18-3-8-4-14-2-1zm-33 2-5 3-2 4 1 7 6 4 12 2-2 5-6 1-5-2-4 1 1 4 5 3h10l6-4 1-9-3-5-8-2-6-1v-4l7-1 4 1 1-1v-5l-1-1zm84 5-3 8-5 18v5l6 1 2-7 5-19v-5zm-135 8-10 4-2 4 10 25 4 2 2-1-1-8-1-5 7-2 5-6-1-7-5-6zm159 0-12 27 1 3 17 7h2l-1-6-9-4h-2l9-22-1-4zm-189 14-13 8-2 3 15 25 5-1 13-8 2-3-2-2-5 1-7 4h-5v-5l6-5 3-1-2-5-8 4h-5l-1-4 11-7-1-4zm222 1-4 4-9 16-3 5 1 4 4 1 5-8 9-16 1-5zm20 13-9 11-10 12 1 4 4 1 11-14 1-2-1 13-1 12 4 4 3-1 9-11 8-10-1-5-4 1-7 8-3 4v-10l1-11-4-6zm-273 7-10 8-4 5 3 5 12 13 3 4 6-1 12-10v-4l-3-1-9 7-4 1-3-5 7-7-1-5-8 6h-6l1-5 5-5 3-4zm73 22-1 2h21l15 3h5l1 2 3-3-22-4zm-99 3-4 4 4 16-10-6h-3l-1 4 8 8 10 7 5 1 2-3-6-7h12l7-3 1-4h-21l-2-16zm328 3-10 6-5 8v6l6 8 6 6 5-1 9-8v-2l-8-8-3 1 1 9-3 1-5-5-1-4 4-7 6-3 7 1 4 9 1 2 4-1 1-5-4-8-5-4-3-1zm-225 2-7 4-6 8-5 16-1 5v13l4 11 7 8 7 5-3 39v38l4 16 5 12 3 2 7-8 2-7 5-41 4-18 7-16 5-6 8-4h6l4 2 4 4 12 4 8 6 1 3-6 2-8 5 1 5 1 1 13-1 23-4 5-2v-7l-1-2-17-2 3-6 7-9v-8l5-12 8-16 6-20-2-10-3-6-4-3h-9l-27 4h-9l-12-5h-7l-6 4-2 2-7-1-13-4-5-1zm394 4-11 28-16 38v3h55l1-2-20-51-6-15zm-285 65-2 2 4-1zm-62 12-9 7-6 12-4 20v10l3-1 1-8 9 3-2-5-3-6v-13l5-8 8-6 4-4v-1zm93 13-7 8-5 4 1 4 5 5 3-7 5-10v-4zm-1 16-1 5 2-1zm-2 5-2 6-2 7-8-1-19-8h-20l-23 3-9 2v1l7 2 23-1 21-3h7l2 11 6 2 11 3 2 1 3-7 2-4v-14zm-96 9m61 1-19 2v3l3 3h25v-8zm-41 3-2 2-1 8 8 10 3 2 7 1 42 1 1 12h-2v-10l-1-1h-28l2 6 4 4 22 2 13 5 3 3 2 7 1 9h-4l-2-5-6-6h-4l2 10 7 3 9 2 1-2-1-14-3-12-10-14-4-3-3-1-41-1-7-2-3-2-1-8 16-1v-4l-2-1zm74 18-1 19 4-3-1-14zm-71 6 3 10 6 17 4 10h1l-1-8-1-9-3-8v-2h8l8 1-3-10-12-1zm12 20 4 4 2-2-2-2zm4 5v8l2 9 4 6h29v-1l-16-1-11-3-3-10 11 1-1-9zm16 0 2 6 5 4 13 2 2-1-1-10zm19 23v1h7v-1zm-20 1-2 1v12l4 8 6 2 11 1 1 8 18 5h4v-3l-8-10-11-3-17-2-4-5v-6l6-2v-5zm28 0 3 13 12 2-3-5-8-10zm-18 1 2 6 8 3 7 1-1-10zm-18 1m1 1 1 2zm1 2 1 2zm13 20-4 2 1 5 2 2v-2h7l4 1-1-6zm-1 9m1 2m2 1m8 4m1 1m13 2 6 7 5 6v-3l-7-9zm12 13m-18 6 1 12 3 2h3v-11l6 10 3 8-9 4v2l-4 2 10-2 15-7v-2l-6 1-3 1-3-10-4-6-6-4zm-208 13-14 14-1 5 6-1 5-3-1 13 3 3 3-1 1-12 1-2 12-2-2-4-11-1 1-4 1-5zm297 2 1 12-4-1h-8v3l8 4 7 2 6 5 4-1-2-5-4-5-4-11-2-3zm-85 4-2 2 5 1v-3zm-190 14-9 12-4 6 2 4 10 7 4 1 1-4-8-6v-4l4 1 5 3 3-1-2-4-5-4-1-3 4-1 7 5h4l-1-4-9-7zm252 2v5l3 4-2 5-5 3-5-7-5 1 4 8 9 12 4 1 1-3-4-8 7-5 5 5 4 1 1-4-13-17zm-229 14-7 11-4 8 1 4 13 7 3-1v-3l-9-5v-4l6 1 5 2 1-5-7-3-1-5 6 1 4 3 4-1v-3l-13-7zm207 2-17 8v3l3 1h6l8 15 4 1 2-2-7-16 1-5 3-5zm-182 11-6 12-3 12 4 1 2-2 2-4 6 2 7-1 4-5v-6l-4-5-8-4zm143 5-1 4 7 22 11-3 5-3-1-3-6 1-4 1-5-12-3-7zm-24 7-2 1-4 15-1 12h4l2-6 5-1h7l3 3 4 1-1-5-10-16-4-4zm-68 1-2 2-2 15v10h5l2-9 9-1v11h6l1-13v-13l-5 1-1 9h-10v-11zm35 3-7 2 1 24h18l1-5h-12v-4l9-2 1-4-5-1-6-1v-3l11-1 2-4-1-1z" fill="#2B65C9"/>
<path transform="translate(367,81)" d="m0 0h11l22 2 22 5 16 6 23 12 14 10 11 9 10 10 9 11 10 14 10 18 7 18 5 21 2 18v32l-3 21-6 20-7 16-9 16-10 14-11 12-6 7-11 9-11 8-7 4h-6l-5 1-6-14-5-4-8-2 1 2 1 10 5 2-1-3v-9l5 5 6 14-7 4h-3v2l-1 1 3 1-11 5-17 5-19 3-14 1h-11l-23-2-21-5-16-6-19-9-15-10-11-9-10-9-7-8-13-17-10-17-7-16-5-15-3-14-1-10v-46l3-17 9-27 10-19 12-17 12-13 11-11 13-10 14-9 16-8 19-7 26-5zm-63 22-1 2h21l15 3h5l1 2 3-3-22-4zm4 8-7 4-6 8-5 16-1 5v13l4 11 7 8 7 5-3 39v38l4 16 5 12 3 2 7-8 2-7 5-41 4-18 7-16 5-6 8-4h6l4 2 4 4 12 4 8 6 1 3-6 2-8 5 1 5 1 1 13-1 23-4 5-2v-7l-1-2-17-2 3-6 7-9v-8l5-12 8-16 6-20-2-10-3-6-4-3h-9l-27 4h-9l-12-5h-7l-6 4-2 2-7-1-13-4-5-1zm109 69-2 2 4-1zm-62 12-9 7-6 12-4 20v10l3-1 1-8 9 3-2-5-3-6v-13l5-8 8-6 4-4v-1zm93 13-7 8-5 4 1 4 5 5 3-7 5-10v-4zm-1 16-1 5 2-1zm-2 5-2 6-2 7-8-1-19-8h-20l-23 3-9 2v1l7 2 23-1 21-3h7l2 11 6 2 11 3 2 1 3-7 2-4v-14zm-96 9m61 1-19 2v3l3 3h25v-8zm-41 3-2 2-1 8 8 10 3 2 7 1 42 1 1 12h-2v-10l-1-1h-28l2 6 4 4 22 2 13 5 3 3 2 7 1 9h-4l-2-5-6-6h-4l2 10 7 3 9 2 1-2-1-14-3-12-10-14-4-3-3-1-41-1-7-2-3-2-1-8 16-1v-4l-2-1zm74 18-1 19 4-3-1-14zm-71 6 3 10 6 17 4 10h1l-1-8-1-9-3-8v-2h8l8 1-3-10-12-1zm12 20 4 4 2-2-2-2zm4 5v8l2 9 4 6h29v-1l-16-1-11-3-3-10 11 1-1-9zm16 0 2 6 5 4 13 2 2-1-1-10zm19 23v1h7v-1zm-20 1-2 1v12l4 8 6 2 11 1 1 8 18 5h4v-3l-8-10-11-3-17-2-4-5v-6l6-2v-5zm28 0 3 13 12 2-3-5-8-10zm-18 1 2 6 8 3 7 1-1-10zm-18 1m1 1 1 2zm1 2 1 2zm13 20-4 2 1 5 2 2v-2h7l4 1-1-6zm-1 9m1 2m2 1m8 4m1 1m13 2 6 7 5 6v-3l-7-9zm12 13m-14 25-2 2 5 1v-3z" fill="#FEFDC5"/>
<path transform="translate(309,105)" d="m0 0h21l14 3h3l4-2 10-1 9 2 6 3 15-1 21-3 10 1 5 3 5 6 1 3v16l-4 16-7 16-7 15 13 1 11 4 9 6 4 7 1 2v7l-4 10-4 8-3 12-1 1-8-1-19-8h-20l-23 3-5 1 3 2 23-1 21-3 7 1 2 3 1 8 16 4 1 1 5-10 1-9 2-2 2 2v9l-4 9 2 6 2 3 1 10-2 6-2 3v6l3 5v14l-2 4 3 5 2 4-1 3-5-8 1 9 2 6-1 4h-3v2l5 1 2 6v4h-2l-2-7h-2v10l3 1 1 5 1 4-3-2 2 4 2 6-1 4 4 7 1 6-3-2-5-9-9-8-4-4 4 5 1 3-1 2h2l3 4 6 3 3 7-1 7-2 4h-4l-3-5-5-8-5-3-7-1-6-9 1-3 4-2 4 1 3 2-2-4h-5l-2-5-8-3 2 13 4 7v2l4 1-2 1-1 2-7-9-3-13-3-1-4-4-3-5-1-6h2l3 6 4 2v-2l-2-2 7-1 4 2-1-6-9-1-5 1-1-3h-2l-5-12 1-5-2-4-7-6-3-7-2-10-1-9-3-8 1-2 8-1 8 2-3-5v-5h-12l-10-1 8 20-1 3-6-9-3-8-1-9-5-8-1-6v-4l-4-4-8-2-4-4-4-8v-13l5-8 7-6 4-2 1-2h-5l-9 7-5 11-8 39-3 26-3 9-6 7-2 1h-6l-5-4-5-12-3-10-1-7v-45l2-31-11-10-7-14-1-5 1-13 5-17 5-10 4-5 7-4zm-1 6-7 4-6 8-5 16-1 5v13l4 11 7 8 7 5-3 39v38l4 16 5 12 3 2 7-8 2-7 5-41 4-18 7-16 5-6 8-4h6l4 2 4 4 12 4 8 6 1 3-6 2-8 5 1 5 1 1 13-1 23-4 5-2v-7l-1-2-17-2 3-6 7-9v-8l5-12 8-16 6-20-2-10-3-6-4-3h-9l-27 4h-9l-12-5h-7l-6 4-2 2-7-1-13-4-5-1zm140 94-7 8-5 4 1 4 5 5 3-7 5-10v-4zm-38 31-19 2v3l3 3h25v-8zm-41 3-2 2-1 8 8 10 3 2 7 1 42 1 1 12h-2v-10l-1-1h-28l2 6 4 4 22 2 13 5 3 3 2 7 1 9h-4l-2-5-6-6h-4l2 10 7 3 9 2 1-2-1-14-3-12-10-14-4-3-3-1-41-1-7-2-3-2-1-8 16-1v-4l-2-1zm74 18-1 19 4-3-1-14zm-59 26 4 4 2-2-2-2zm4 5v8l2 9 4 6h29v-1l-16-1-11-3-3-10 11 1-1-9zm16 0 2 6 5 4 13 2 2-1-1-10zm19 23v1h7v-1zm-20 1-2 1v12l4 8 6 2 11 1 1 8 18 5h4v-3l-8-10-11-3-17-2-4-5v-6l6-2v-5zm28 0 3 13 12 2-3-5-8-10zm-18 1 2 6 8 3 7 1-1-10z" fill="#24201D"/>
<path transform="translate(1292,308)" d="m0 0h143v10l-1 1-23 1-458 2h-337l-2-2 1-1 1-7 3-1 92-1 391-1z" fill="#1A53BA"/>
<path transform="translate(1199,377)" d="m0 0 13 1 6 4 5 8 14 34 6 15 4 6 9 2 7-3 1-55-9-2-2-6 2-3h46l9 3 7 5 4 8v12l-6 8-6 5-3 1 2 5 7 11 7 8 12 3 6-2 1-2v-53l-9-3-1-7 1-2h59l1 1v24l-1 1h-8l-3-4-3-10-1-1-17-1v24h21l1 1v9h-22v24l20-1 2-1 5-12 5-1 5 2 1 5-2 14-2 4-33 1h-38l-10-1-8-5-9-12-8-13-6-3v22l7 1 3 3v6l-1 1-12 1h-22l-1-2-3 2h-32l-3-3 1-6 8-2-4-12-25-1-3 9v3l9 2 1 7-1 2-11 1h-19l-2-1v-6l2-4 6-1 5-10 10-24 7-16 2-6-8-4-1-4 2-3zm86 10-4 2v24l1 1h10l7-3 3-3 1-3v-7l-3-6-5-4zm-76 17-7 16v2l3 1h12l-3-11-4-8z" fill="#2A64C8"/>
<path transform="translate(1077,79)" d="m0 0h130v9l-15 4-6 5-7 11-15 28-12 23-12 22-13 25-10 19-1 7 5 5 8 1h31l11-1 8-4 6-9 7-20h9l4 2v10l-5 29-1 3-2 1h-136l-1-1v-7l1-2 11-1 6-3 9-14 13-24 15-28 13-24 12-22 8-16 3-7v-9l-12-1h-29l-13 1-6 4-4 5-7 16-4 8-5 1-7-3 1-14 4-24 2-4z" fill="#2B64C8"/>
<path transform="translate(1274,78)" d="m0 0h21l13 4 9 8 7 12 14 34 32 79 8 17 6 5 11 2 1 1v9l-47 1h-22l-3-2v-8l1-1 15-2 4-2 1-5-5-16-6-16-1-2-67-1-3 9-7 22-1 7 2 3 11 2 11 1 1 1v8l-3 2-61-1v-9l1-1 13-2 4-1 10-20 18-43 20-47 10-25-1-6-6-4-13-4-1-6zm26 36-5 11-15 37-8 19v3h56l-5-15-15-38-7-17z" fill="#2B65C9"/>
<path transform="translate(811,79)" d="m0 0h72l1 1v6l-1 2-15 4-4 1-2 6-1 12v114l3 9 5 3 8 1h22l14-1 6-3 3-1 2-4 10-25h9l5 2-1 13-4 23-3 7h-130v-9l1-1 13-2 5-3 3-7 1-53v-44l-1-29-4-8-4-2-14-2v-9z" fill="#2D66C9"/>
<path transform="translate(966,79)" d="m0 0h72v8l-4 2-10 2-6 4-2 4-1 20v101l1 9 4 6 9 3 8 1 2 2-1 8-2 1-71-1-1-1v-8l1-1 14-2 6-5 2-7v-122l-2-7-4-4-16-3-1-1v-7z" fill="#2B65C9"/>
<path transform="translate(346,229)" d="m0 0 4 2 7 3 10 2 2 1 23-1 21-3 7 1 2 3 1 8 16 4 1 1 5-10 1-9 2-2 2 2v9l-4 9 2 6 2 3 1 10-2 6-2 3v6l3 5v14l-2 4 3 5 2 4-1 3-5-8 1 9 2 6-1 4h-3v2l5 1 2 6v4h-2l-2-7h-2v10l3 1 1 5 1 4-3-2 2 4 2 6-1 4 4 7 1 6-3-2-5-9-9-8-4-4 4 5 1 3-1 2h2l3 4 6 3 3 7-1 7-2 4h-4l-3-5-5-8-5-3-7-1-6-9 1-3 4-2 4 1 3 2-2-4h-5l-2-5-8-3 2 13 4 7v2l4 1-2 1-1 2-7-9-3-13-3-1-4-4-3-5-1-6h2l3 6 4 2v-2l-2-2 7-1 4 2-1-6-9-1-5 1-1-3h-2l-5-12 1-5-2-4-7-6-3-7-2-10-1-9-3-8 1-2 8-1 8 2-3-5v-5h-12l-10-1 8 20-1 3-6-9-3-8-1-9-5-8-1-6v-4l-4-4-8-2-4-4zm64 7-19 2v3l3 3h25v-8zm-41 3-2 2-1 8 8 10 3 2 7 1 42 1 1 12h-2v-10l-1-1h-28l2 6 4 4 22 2 13 5 3 3 2 7 1 9h-4l-2-5-6-6h-4l2 10 7 3 9 2 1-2-1-14-3-12-10-14-4-3-3-1-41-1-7-2-3-2-1-8 16-1v-4l-2-1zm74 18-1 19 4-3-1-14zm-59 26 4 4 2-2-2-2zm4 5v8l2 9 4 6h29v-1l-16-1-11-3-3-10 11 1-1-9zm16 0 2 6 5 4 13 2 2-1-1-10zm19 23v1h7v-1zm-20 1-2 1v12l4 8 6 2 11 1 1 8 18 5h4v-3l-8-10-11-3-17-2-4-5v-6l6-2v-5zm28 0 3 13 12 2-3-5-8-10zm-18 1 2 6 8 3 7 1-1-10z" fill="#25211E"/>
<path transform="translate(956,377)" d="m0 0h8l8 2 5 5 6 12 16 40 5 9 2 1h10l3-1v-56l-9-3v-6l1-2h36l1 5-2 4-8 1v57h22l2-9 4-5 6 1 3 3v8l-3 12-1 1-32 1h-62l-2-2v-7l7-2-1-8-2-4h-24l-4 9v2l9 2 1 2v6l-1 1-7 1h-22l-3-2v-6l9-5 9-20 9-22 5-11v-2l-7-3-2-5 2-3zm11 27-8 16v2l4 1h11l-2-9-4-10z" fill="#2B65C9"/>
<path transform="translate(780,377)" d="m0 0h12l9 3 8 7 28 36v2h2l-1-2v-35l-9-1-1-2v-6l1-1 21-1 9 1 1 1v7l-6 2h-4v22l-1 45-2 2-7-1-9-10-14-19-10-13-7-9-1 40 8 2 2 2-1 7-2 1h-26l-2-1v-7l1-2 8-1v-56l-9-4v-8z" fill="#2B65C9"/>
<path transform="translate(630,377)" d="m0 0h23l18 1 12 4 9 7 6 7 4 9 1 4v17l-4 11-10 11-12 6-9 2-14 1h-27l-3-2v-6l2-2 7-2v-56l-8-2-1-1v-6l1-2zm22 10-1 1v56l3 2h14l8-4 5-7 2-7v-20l-4-10-7-7-7-3z" fill="#2B65C9"/>
<path transform="translate(309,105)" d="m0 0h21l14 3h3l4-2 10-1 9 2 6 3 15-1 21-3 10 1 5 3 5 6 1 3v16l-4 16-7 16-7 15h-5l-1 2 1-8 11-23 7-22-2-10-3-6-3-2h-9l-27 4h-9l-12-5h-7l-6 4-2 2-7-1-13-4-5-1h-15l-7 4-6 9-5 19v13l4 11 6 7 8 6-3 39v38l4 16 5 12h3l5-6 2-7 5-41 4-18 7-16 6-7 8-4h6l5 3-1 3-4 1v-1h-5l-9 7-5 11-8 39-3 26-3 9-6 7-2 1h-6l-5-4-5-12-3-10-1-7v-45l2-31-11-10-7-14-1-5 1-13 5-17 5-10 4-5 7-4z" fill="#292B31"/>
<path transform="translate(1332,378)" d="m0 0h59l1 1v24l-1 1h-8l-3-4-3-10-1-1-17-1v24h21l1 1v9h-22v24l20-1 2-1 5-12 5-1 5 2 1 5-2 14-2 4-33 1h-38l-10-1-2-1v-2h2l1-4h8v-3h7l6 1 6-2 1-2v-53l-9-3-1-7z" fill="#2A64C8"/>
<path transform="translate(746,377)" d="m0 0h11l11 1 2 3v16l-2 7h-8l-2-2-3-11-2-2-17-1v24h21l2 3-1 7h-22l1 23h19l3-3 5-10 6-1 3 1 1 2v9l-2 10-4 4h-55l-4-2v-6l9-4v-56l-9-3v-8z" fill="#2A64C8"/>
<path transform="translate(1141,375)" d="m0 0 15 1 9 4 5 5 3 6v8l-5 8-7 3-8-1-4-4 1-4 4-4v-6l-4-4-7-1-10 4-6 8-3 10v18l4 10 6 7 7 3 8 1 8-3 8-8 4-1 4 4v7l-9 8-10 4h-21l-11-4-10-9-7-14-1-4v-20l4-11 8-11 11-7 6-2z" fill="#2A64C8"/>
<path transform="translate(346,229)" d="m0 0 4 2 7 3 10 2 2 1h8v1l-9 3-1 8 7 9 3 2 7 1 35 1 7 1 1 2v10h-2l-1-10-28-1 4 8 2 1 22 2 13 5 4 4 2 7v9h-4l-6-8-2-2-4-1 1 2v8h-3v-10h-13l-8-1 2 5h-2l-1 2v-7h-15l3 17 3 5h3l3 4h1l1 11 3 6v2l6 1 11 1 1 1v8l12 2 9 3v-3l-7-9 3-2 1 3h3v2h2v-5h1v10l3 1 1 5 1 4-3-2 2 4 2 6-1 4 4 7 1 6-3-2-5-9-9-8-4-4 4 5 1 3-1 2h2l3 4 6 3 3 7-1 7-2 4h-4l-3-5-5-8-5-3-7-1-6-9 1-3 4-2 4 1 3 2-2-4h-5l-2-5-8-3 2 13 4 7v2l4 1-2 1-1 2-7-9-3-13-3-1-4-4-3-5-1-6h2l3 6 4 2v-2l-2-2 7-1 4 2-1-6-9-1-5 1-1-3h-2l-5-12 1-5-2-4-7-6-3-7-2-10-1-9-3-8 1-2 8-1 8 2-3-5v-5h-12l-10-1 8 20-1 3-6-9-3-8-1-9-5-8-1-6v-4l-4-4-8-2-4-4zm38 54 4 4 2-2-2-2z" fill="#252323"/>
<path transform="translate(1283,132)" d="m0 0h2l-1 8 1 1h2l-1 9-14 34h33l19 1 3 1 3 8-9 1h-55l-3 9-7 22-1 7 2 3 11 2 11 1 1 1v8l-3 2-61-1v-9l1-1 13-2 4-1 10-20 18-43 8-18 3-1h3l2-6 2-5h-3l3-9z" fill="#2B65C8"/>
<path transform="translate(863,378)" d="m0 0h66l1 2 1 9v13l-2 2h-8l-3-5-3-9-4-2h-5v57l8 3v8h-36l-1-6 4-3 5-2 1-39v-19l-9 2-5 12-2 3h-8l-2-4v-10l1-10z" fill="#2B65C8"/>
<path transform="translate(1199,377)" d="m0 0 13 1 6 4 5 8 14 34 6 15 1 4h-7v2l-6 2-5-1-4-12-25-1-3 9v3l9 2 1 7-1 2-11 1h-19l-2-1v-6l2-4 6-1 5-10 10-24 7-16 2-6-8-4-1-4 2-3zm10 27-7 16v2l3 1h12l-3-11-4-8z" fill="#2B65C9"/>
<path transform="translate(1077,79)" d="m0 0h130v9l-15 4-6 5-1 2h-3l3-9 1-4-6-3-12-1-14 1-1 8-14-1h-29l-13 1-6 4-4 5-7 16-4 8-5 1-7-3 1-14 4-24 2-4z" fill="#1A53BA"/>
<path transform="translate(1192,204)" d="m0 0h9l4 2v10l-5 29-1 3-2 1h-75l-19-1 4-5h2v-2l3-3h2v-2l7 1 8 1h31l11-1 8-4 6-9z" fill="#1952B9"/>
<path transform="translate(1011,378)" d="m0 0h36l1 5-2 4-8 1v58l-5 2v2l-6 2h-15l-2-1v-2l-2-2 11-2v-56l-9-3v-6z" fill="#2B64C8"/>
<path transform="translate(404,293)" d="m0 0 10 5 13 1 2-2 3 3 10 3 4 4 4 20-1 2h-3v2l5 1 2 6v4h-2l-2-7-2-1-1 6h-2v-2h-3l-2-2-8-1-22-3-5-6v-6l2-2h4l1-5h-8l-4 2-2-4 10-1-9-3-4-4-1-7h8l3 1zm19 18v1h7v-1zm8 1 3 13 12 2-3-5-8-10zm-18 1 2 6 8 3 7 1-1-10z" fill="#242120"/>
<path transform="translate(387,302)" d="m0 0 5 5 2 3h3l3 4h1l1 11 3 6v2l6 1 11 1 1 1v8l12 2 9 3v-3l-7-9 3-2 1 3h3v2h2v-5h1v10l3 1 1 5 1 4-3-2 2 4 2 6-1 4 4 7 1 6-3-2-5-9-9-8-4-4 4 5 1 3-1 2h2l3 4 6 3 3 7-1 7-2 4h-4l-3-5-5-8-5-3-7-1-6-9 1-3 4-2 4 1 3 2-2-4h-5l-2-5-8-3 2 13 4 7v2l4 1-2 1-1 2-7-9-3-13-3-1-4-4-3-5-1-6h2l3 6 4 2v-2l-2-2 7-1 4 2-1-6-9-1-5 1-1-3h-2l-5-12 1-5-2-4-7-6-2-4z" fill="#323A47"/>
<path transform="translate(665,378)" d="m0 0 10 1 9 4 8 6 6 7 4 9 1 4v17l-4 11-10 11-8 4-1-5-12-1 9-6 4-8 1-4v-20l-4-10-8-7-2-1v-2h2l-1-8z" fill="#2B65C9"/>
<path transform="translate(1291,378)" d="m0 0h10l9 3 7 5 4 8v12l-6 8-6 5-3 1 2 5 7 11 7 8 3 2h-4v3h-8l-1 4-4 1-5-5-6-7-2-5 2 1v-7l-1-9 2-9 1 3 6-4 3-1 1-2-6-1-1-3v-7l-3-6-2-3v-7l1-2-7-1z" fill="#2B65C9"/>
<path transform="translate(324,105)" d="m0 0 11 1 9 2h3l4-2 10-1 9 2 6 3 15-1 21-3 10 1 5 3 5 6 1 3v16l-4 16-7 16-7 15h-5l-1 2 1-8 11-23 7-22-2-10-3-6-3-2h-9l-27 4h-9l-12-5h-7l-6 4-2 2-7-1-6-2-4-4-2-4-5-1z" fill="#343535"/>
<path transform="translate(1066,431)" d="m0 0 6 1 3 3v8l-3 12-1 1-32 1h-62l-2-2v-7h7l1-1h5v2l8 1 6 1-1-2 1-4 9 3-1 3h17l6-1v-2l3-2 24-1 2-9z" fill="#1B54BA"/>
<path transform="translate(1141,375)" d="m0 0 15 1 9 4 5 5 3 6v8l-5 8-7 3-8-1-4-4 1-4 4-4v-6l-4-4-7-1-10 4-4 5-4-1-3-3v-8l5-5 6-2z" fill="#1A53BA"/>
<path transform="translate(1389,431)" d="m0 0 7 2 1 5-2 14-2 4-33 1h-38l-10-1-2-1v-2h2l1-4h8v-3h7l10 1 1 4 7-1 1-1h10l12 1 1-3-2-1 11-1 2-1 5-12z" fill="#1A53BA"/>
<path transform="translate(766,431)" d="m0 0 7 1 1 2v9l-2 10-4 4h-55l-4-2v-6l6-3 6 1 14-3 2 1h19l3-3 5-10z" fill="#1B54BA"/>
<path transform="translate(934,204)" d="m0 0h9l5 2-1 13-4 23-3 7h-27v-1l27-1-1-4h-12l-10 1-5-3 1-4 6-3 3-1 2-4 6-15z" fill="#2B65C9"/>
<path transform="translate(1240,442)" d="m0 0 5 1 4 3 7 1 10-1h4l9-3 1 2 8 1 3 3v6l-1 1-12 1h-22l-1-2-3 2h-32l-3-3 1-6 10-3 4 1 5-1v-2z" fill="#1B54BB"/>
<path transform="translate(1192,204)" d="m0 0h9l4 2v10l-5 29-1-2-5-1-10 3-2 1-8-2-3-3v-2h-11v-1l11-1 8-4 6-9z" fill="#2B65C9"/>
<path transform="translate(1332,378)" d="m0 0h59l1 1v24l-1 1h-8l-3-4-3-10-1-1-18-1-1 3-5-5-3-2-8 1-1 3-8-1-1-7z" fill="#1953B9"/>
<path transform="translate(865,237)" d="m0 0 12 1h35v3l7 2 15-1h6l1 3-1 2-10 1-17 1h-43l-17-1 3-3 6-4 1-2h2z" fill="#1952B9"/>
<path transform="translate(746,377)" d="m0 0h11l11 1 2 3v16l-2 7h-8l-2-2-3-11-2-2h-18v-5l-14-3-5 2h-5l3 4-5-1v-8z" fill="#1A54BA"/>
<path transform="translate(510,451)" d="m0 0h5l-1 3-16 10-18 10-15 7-27 9-17 4h-9l2-5 11-6 24-4 11-4 6-2 21-10 11-6z" fill="#1B54BA"/>
<path transform="translate(1201,423)" d="m0 0h10l2 1 1 7-1 1h-16l-1 5-2 5v3l9 2 1 7-1 2-11 1h-19l-2-1v-6l2-4 6-1 8-13 3-7 8 4 1-4z" fill="#1A53BA"/>
<path transform="translate(404,293)" d="m0 0 10 5 13 1 2-2 3 3 10 3 4 4-2 8h2l1 9-5-3-9-9-26-2-9-3-4-4-1-7h8l3 1z" fill="#252321"/>
<path transform="translate(1071,80)" d="m0 0 2 1v2l6 2 2 2-1 8-1 3v7l4 1-3 10-4 8-5 1-7-3 1-14 4-24z" fill="#2B65C9"/>
<path transform="translate(1285,184)" d="m0 0h20l19 1 3 1 3 8-9 1h-39l-14-1-1-2 16-5h2z" fill="#1952B9"/>
<path transform="translate(1022,237)" d="m0 0 15 2 2 2-1 8-2 1-71-1-1-1v-8l1-1h13v4l5 2 1 3 19-2 4-3 8-3 5-1z" fill="#1A53BA"/>
<path transform="translate(325,141)" d="m0 0 3 1 1 5-1 2 11 2 10 2h21l17-4 5-5h4l3 9-1 1-13 2-11 3-7 1h-17l-17-4-6-3-8 1-1-2 6-10z" fill="#272628"/>
<path transform="translate(387,302)" d="m0 0 5 5 2 3h3l3 4h1l1 11 3 6v2l6 1 11 1 1 1v8l4 1v2l5 1 3 3 4 2-1 2h-9l-3-1-9-1-1-1 2 13 4 7v2l4 1-2 1-1 2-7-9-3-13-3-1-4-4-3-5-1-6h2l3 6 4 2v-2l-2-2 7-1 4 2-1-6-9-1-5 1-1-3h-2l-5-12 1-5-2-4-7-6-2-4z" fill="#353533"/>
<path transform="translate(1167,435)" d="m0 0 5 2 1 2v7l-9 8-10 4h-21l-4-1-2-5 5-2 5 1 3-3 13-2 6-4z" fill="#1A54BA"/>
<path transform="translate(309,105)" d="m0 0h15l6 2 2 2v2l4 3-8-1-5-1h-15l-7 4-6 9-5 19v13l1 6h-2l-6-15 1-10 5-15 4-8 4-5 7-4z" fill="#34383D"/>
<path transform="translate(672,445)" d="m0 0 8 1 2 4-2 3-12 3-14 1h-27l-2-1 1-6h14l14-4z" fill="#1B54BA"/>
<path transform="translate(419,110)" d="m0 0 9 1 4 5 1 3v16l-4 16-7 16-7 15h-5l-1 2 1-8 11-23 7-22-2-10-3-6-4-3z" fill="#34383D"/>
<path transform="translate(690,184)" d="m0 0h15l10 4h10l6 3v3l-6 1h-45l-6-1 4-4 8-2h3z" fill="#1952B9"/>
<path transform="translate(790,436)" d="m0 0 1 2 4 1h3v6l9 2 2 2-1 7-2 1h-26l-2-1v-7l1-2 9-1z" fill="#1A54BA"/>
<path transform="translate(426,361)" d="m0 0 4 1 4 4 3-2 4 6 8 3 3 3 2 5-1 7-2 4h-4l-3-5-5-8-5-3-7-1-6-9 1-3z" fill="#364051"/>
<path transform="translate(1278,443)" d="m0 0 2 2 8 1 3 3v6l-1 1-12 1h-22l-1-2v-7l1-1 10-1h4z" fill="#1A53BA"/>
<path transform="translate(900,440)" d="m0 0 3 3 1 2 9 2 1 1v8h-36l-1-6 4-3h8l3 2v-3l5-5z" fill="#1953B9"/>
<path transform="translate(1255,378)" d="m0 0h36l9 1-2 1v9l-13-1-3 1-1 2h-2l-6-8h-7l-4 5-7-1-2-6z" fill="#1953B9"/>
<path transform="translate(447,229)" d="m0 0 3 2v9l-4 9 2 6 2 3 1 10-2 6-2 3v6l3 5v14l-2 4 3 5 2 4-1 3-5-8-4-5 2-3-1-14-2-6v-6l3-3-1-14-2-1 1-8-2 2v-5l4-7 1-9z" fill="#3166C1"/>
<path transform="translate(1152,79)" d="m0 0h55v9l-15 4-6 5-1 2h-3l3-9 1-4-6-3-11-1v-2h-17z" fill="#1D56BC"/>
<path transform="translate(938,445)" d="m0 0h8l14 2 1 2v6l-1 1-7 1h-22l-3-2v-6l6-3z" fill="#1B54BB"/>
<path transform="translate(1274,78)" d="m0 0h21l9 3v1l-5 1-4 9-1 2-9-3-13-4-1-6z" fill="#1A53BA"/>
<path transform="translate(1302,407)" d="m0 0 7 2-2 4-4 1-4 2h-1l-1 10 1 5v8l-5-3-6-10-6-5v-6l1-1 14-2z" fill="#1952B9"/>
<path transform="translate(1283,132)" d="m0 0h2l-1 8 1 1h2l-1 9-6 14h-2l-3 9-1 2h-3v-2h-2l-1-7 3-3v-8l2-1h3l2-6 2-5h-3l3-9z" fill="#1A53BA"/>
<path transform="translate(676,78)" d="m0 0h22l5 3-4 4-4 8-5-1-13-4-3-5z" fill="#1A53B9"/>
<path transform="translate(1167,389)" d="m0 0 5 1 1 1v8l-5 8-7 3-8-1-3-2 1-5 3-3h6v-6h2v-2z" fill="#1A53BA"/>
<path transform="translate(925,378)" d="m0 0h4l1 2 1 9v13l-2 2h-8l-3-5-3-10h2l1-2 5-7h2z" fill="#2B65C9"/>
<path transform="translate(659,238)" d="m0 0h13l10 1 1 1v8l-3 2-25-1v-5l1-3h3z" fill="#1A53BA"/>
<path transform="translate(1257,238)" d="m0 0h11l11 1 1 1v8l-3 2-22-1-1-4 3-2z" fill="#1A53BA"/>
<path transform="translate(1360,412)" d="m0 0h20l1 1v9h-23v7h-1l-1-5v-7z" fill="#1A53BA"/>
<path transform="translate(346,229)" d="m0 0 4 2 7 3 10 2 2 1h8v1l-9 3-1 8 5 7-1 2 1 3 5 1v1h-5l8 20-1 3-6-9-3-8-1-9-5-8-1-6v-4l-4-4-8-2-4-4z" fill="#3161B2"/>
<path transform="translate(1217,239)" d="m0 0h15l12 6 1 2 4 2h-33v-9z" fill="#1952B9"/>
<path transform="translate(734,412)" d="m0 0h23l2 3-1 7h-19l-5-1-1-7z" fill="#1A53BA"/>
<path transform="translate(282,148)" d="m0 0h2l5 13v2l3 1 6 9 10 8-1 7-4-1v-3l-4-2-9-8-7-14-1-5z" fill="#262A32"/>
<path transform="translate(309,105)" d="m0 0h15l6 2 2 2v2l4 3-8-1-5-1h-15l-7 4-7 10-1-4 6-9 4-5 1-2z" fill="#272523"/>
<path transform="translate(1322,313)" d="m0 0h56v2l5 1v1h-51l-11-1-1-2z" fill="#2B65C9"/>
<path transform="translate(457,105)" d="m0 0 5 2 13 9 11 9 10 10 9 11 10 14 10 18-1 3-11-18-9-13-10-13-6-7-8-7-13-10-10-7z" fill="#FDFDFD"/>
<path transform="translate(324,105)" d="m0 0 11 1 9 2h3l4-1 4 2 10 1v2h-9l-6 4-2 2-7-1-6-2-4-4-2-4-5-1z" fill="#444A53"/>
<path transform="translate(302,184)" d="m0 0 1 3 4 1-1 19-1 13-1 30h-1v-37l-3 1v-15z" fill="#353E4D"/>
<path transform="translate(1061,239)" d="m0 0h13l3 5 9 3 4 2h-29l-1-1v-7z" fill="#1952B9"/>
<path transform="translate(1192,204)" d="m0 0h9l4 2v10l-2 9-2 3-1-9v-5h-5l-4 1v2h-2l1-7z" fill="#1A53BA"/>
<path transform="translate(780,377)" d="m0 0h12l6 2 1 3-6 4-4 3-10-2-1-1v-8z" fill="#1B54BA"/>
<path transform="translate(415,351)" d="m0 0 6 3 4 1 2 4 5 1 2 5-4-2h-3l-5 1 2 5 5 8v7l-3-3v-3h-2l1-3-3-1-6-12z" fill="#FEFDD0"/>
<path transform="translate(965,239)" d="m0 0h13v4l5 2 1 3h13v1h-32l-1-1v-8z" fill="#1952B9"/>
<path transform="translate(1162,379)" d="m0 0 4 2 5 5 1 4-10 1v2h-2l1 6-5 1-4 2-3 3 1-4 4-4v-8l2 1 3-8 2-2z" fill="#2A64C8"/>
<path transform="translate(898,378)" d="m0 0h27v2h-2l-2 5-4 4-9-2-1-3-4-1v-2l-5-2z" fill="#1952B9"/>
<path transform="translate(424,152)" d="m0 0 1 3-2 10-8 17h-5l-1 2 1-8 10-21 4-1z" fill="#272625"/>
<path transform="translate(1263,195)" d="m0 0 2 1-1 6-6 17-4 3-3-1-1-9 4-5 5-9z" fill="#1A53BA"/>
<path transform="translate(879,79)" d="m0 0 5 1v6l-1 2-9 2h-8l-1-9 1-1z" fill="#1B55BB"/>
<path transform="translate(787,238)" d="m0 0 11 1 1 1v9h-19l1-4h2v-2h2z" fill="#1B54BB"/>
<path transform="translate(370,257)" d="m0 0 4 1 3 2 7 1 35 1 7 1 1 2v10h-2l-1-10-28-1 3 6v2l-4-1-1-7h-12l-10-2z" fill="#314669"/>
<path transform="translate(387,302)" d="m0 0 5 5 2 3h3l3 4h1l1 11 3 6v2l12 2v3h-7l-5 1-1-3h-2l-5-12 1-5-2-4-7-6-2-4z" fill="#3364B8"/>
<path transform="translate(1018,80)" d="m0 0h19l1 1v6l-4 2h-10l-6-5-1-3z" fill="#1A53BA"/>
<path transform="translate(811,79)" d="m0 0h10l8 1-2 1-1 4-3 4h-13v-9z" fill="#1A53BA"/>
<path transform="translate(728,239)" d="m0 0h12l1 5h2l1 5h-16l-1-1v-7z" fill="#1953B9"/>
<path transform="translate(811,239)" d="m0 0h10l6 8 2 2h-19v-9z" fill="#1A53B9"/>
<path transform="translate(434,377)" d="m0 0 5 5 3 6v5l-4 1-7-1-6-8-1-7h2l4 9 5 2-1-3z" fill="#3B69B9"/>
<path transform="translate(1011,378)" d="m0 0h34l1 1v5l-3 1-5-5-18 1-5 5-4 1-1-1v-6z" fill="#1A53BA"/>
<path transform="translate(402,340)" d="m0 0h2l3 6 4 2v-2l-2-2 7-1-2 3 1 1 2 15 5 10v2l4 1-2 1-1 2-7-9-3-13-3-1-4-4-3-5z" fill="#32538B"/>
<path transform="translate(446,280)" d="m0 0 4 8v14l-2 4 3 5 2 4-1 3-5-8-4-5 2-3-1-14-1-4 1-3z" fill="#3F71C5"/>
<path transform="translate(654,378)" d="m0 0h11l5 2v8l-5 1-9-4-2-3z" fill="#1952B9"/>
<path transform="translate(412,106)" d="m0 0 10 1 5 3-1 2-5-1h-14l-20 2-3-1v-1h7v-2z" fill="#262A32"/>
<path transform="translate(1199,377)" d="m0 0 13 1v3l-8 2-1 5-5-1-4-4 2-5z" fill="#1B55BB"/>
<path transform="translate(956,377)" d="m0 0h8l4 2-5 5-3 4-6-1-3-5 2-4z" fill="#1B54BB"/>
<path transform="translate(421,353)" d="m0 0h7l7 2 2 4 4 4-1 4h2l3 5-5-2-4-5-2 2-3-7h-5l-2-5z" fill="#3564B4"/>
<path transform="translate(449,200)" d="m0 0h3l1 2v7l-4 10-4 8-1 5-4-5 2-5 4-7 4-10h-2z" fill="#31425E"/>
<path transform="translate(397,311)" d="m0 0h36l-1 2 2 7v5l-5-1v-11h-17l-1 4v-4h-8l-4 2z" fill="#323D4F"/>
<path transform="translate(1386,239)" d="m0 0h9l1 1v9h-13l-1-2 3-3z" fill="#1952B9"/>
<path transform="translate(413,233)" d="m0 0 7 1-1 3-21 1-7 1 1 3h-2l-1 2v-4h-17v-2l5-1 22-2z" fill="#2D313A"/>
<path transform="translate(965,80)" d="m0 0h16l-1 5-6 3h-6l-4-4z" fill="#1952B9"/>
<path transform="translate(1065,112)" d="m0 0 5 1 6 4-2 6-6 1-4-2v-7z" fill="#1A54BA"/>
<path transform="translate(293,51)" d="m0 0 5 1 1 1v6l-6 4-5-5-1-4z" fill="#2862C7"/>
<path transform="translate(357,105)" d="m0 0 10 1 9 4-1 2-6-1v2l-4-1v-2h-10l-5-1 1-3z" fill="#252830"/>
<path transform="translate(303,199)" d="m0 0 2 1v20l-1 30h-1v-37l-3 1v-8l2-1z" fill="#2F3C53"/>
<path transform="translate(439,335)" d="m0 0 2 1v2h3v2h2v-5h1v10l3 1 1 5 1 4-3-2 1 4-3-1-1-6-2-1v-3l-7-9z" fill="#354257"/>
<path transform="translate(445,309)" d="m0 0 2 4 2 9 1 5-1 2h-3v2l5 1 2 6v4h-2l-2-7h-3-1v-9l-3-4 1-3v2l3 1v-7h-2z" fill="#3D70C7"/>
<path transform="translate(417,335)" d="m0 0h5l1 1v8l4 1 1 4-6-2-5 1-4-2 1-2 6 1-1-6h-2v-2l-2-1z" fill="#333639"/>
<path transform="translate(343,211)" d="m0 0h1l1 12 10 6 4 3 7 2v1h-9l-12-6-2-5z" fill="#343638"/>
<path transform="translate(414,167)" d="m0 0 2 4 4-2-3 9-3 4h-4l-1 2 1-8z" fill="#313741"/>
<path transform="translate(306,93)" d="m0 0 3 1-27 14-17 13-2-1 11-9 14-9 16-8z" fill="#FDFDFD"/>
<path transform="translate(293,443)" d="m0 0 5 1 2 3-1 5-1 1h-6l-2-2 1-6z" fill="#2D66C9"/>
<path transform="translate(261,121)" d="m0 0 2 1-14 14-7 8-7 9-5 5 2-4 7-10 11-12z" fill="#FDFDFD"/>
<path transform="translate(441,364)" d="m0 0 4 3-2-3 4 2 5 6 5 8v2h-2l-1 3-3-11-6-2-3-3v-2h-2z" fill="#FDFDE2"/>
<path transform="translate(387,302)" d="m0 0 5 5 2 3h3l3 4h1v11l-4-1 1-5-2-4-7-6-2-4z" fill="#3467BF"/>
<path transform="translate(383,283)" d="m0 0 6 4v9l1 10-2-4h-2l-2-10z" fill="#38465E"/>
<path transform="translate(1276,142)" d="m0 0h3l2 1-2 5-3 8-6-1 5-12z" fill="#2D66C9"/>
<path transform="translate(625,378)" d="m0 0h11l-4 5-3 3h-5v-6z" fill="#1A53BA"/>
<path transform="translate(1180,312)" d="m0 0 15 1-3 3h-16l-5-2v-1z" fill="#2B65C9"/>
<path transform="translate(447,229)" d="m0 0 3 2v9l-2 3h-2l-2 4-2 1 2-5 2-12z" fill="#304A75"/>
<path transform="translate(1302,407)" d="m0 0 7 2-2 4-4 1-4 2h-3v-4z" fill="#1B54BB"/>
<path transform="translate(419,365)" d="m0 0 3 1 7 11v7l-3-3v-3h-2l1-3-3-1-4-8z" fill="#FDFDFB"/>
<path transform="translate(1391,308)" d="m0 0h44l-1 8h-1v-6l-42-1z" fill="#2E67C9"/>
<path transform="translate(502,85)" d="m0 0h1v8l-2 8-4-4 1-6z" fill="#1C56BC"/>
<path transform="translate(446,333)" d="m0 0 4 2 1 7 2 1-1 1-1 7-2-2v-3l-2-1z" fill="#FDFDE2"/>
<path transform="translate(421,346)" d="m0 0 6 2 2-1 3 1 3 3 4 2-1 2-10-4-10-2 3-1z" fill="#231E19"/>
<path transform="translate(443,310)" d="m0 0h2l-1 5h2l1 9-5-3-3-3 2-7z" fill="#343029"/>
<path transform="translate(449,200)" d="m0 0h3l1 2v7l-2 6-2-1-1 2-2-1 4-10h-2z" fill="#4F7FD2"/>
<path transform="translate(372,269)" d="m0 0 4 4 4 10-1 3-6-9-1-2z" fill="#304B78"/>
<path transform="translate(509,88)" d="m0 0 4 4-1 7-4 3v-11z" fill="#1C55BC"/>
<path transform="translate(448,268)" d="m0 0h1v6l-3 7h-2l1 3h-2l-1-2v-6l3-3h2z" fill="#364867"/>
<path transform="translate(435,325)" d="m0 0 8 1 2 1 1 11-3-1-2-5h2v-2l-6-1z" fill="#35332E"/>
<path transform="translate(1327,239)" d="m0 0h8v2h-2l-1 4-5 1-1-5z" fill="#1952B9"/>
<path transform="translate(1387,378)" d="m0 0 5 1v24l-1 1h-8l4-2 4-1-1-21z" fill="#2B65C9"/>
<path transform="translate(449,374)" d="m0 0h2l3 7-1 7-2 4h-4l3-1v-9l1-1z" fill="#2B65C9"/>
<path transform="translate(406,318)" d="m0 0h5l2 5-3-1v-2h-4l2 5 1 4h-3l-2-3v-6z" fill="#343941"/>
<path transform="translate(429,313)" d="m0 0h3l2 7v5l-5-1z" fill="#2A313E"/>
<path transform="translate(346,229)" d="m0 0 4 2 7 3 2 4-8-2-4-4z" fill="#396FCC"/>
<path transform="translate(438,391)" d="m0 0 3 2 2-2 2 5-5 3-4-2-1-3h3z" fill="#F8F9FB"/>
<path transform="translate(421,353)" d="m0 0h7l7 2v3l-4-1v2l-5 1-2-5z" fill="#4979CC"/>
<path transform="translate(682,149)" d="m0 0 2 2 1 5-3 5-4-3v-2h2l1-5z" fill="#1952B9"/>
<path transform="translate(423,354)" d="m0 0 3 2 1 3 5 1 2 5-4-2h-3-2l-2-5-2-1z" fill="#FDFDF6"/>
<path transform="translate(1038,378)" d="m0 0h7l1 1v5l-3 1-5-5z" fill="#1952B9"/>
<path transform="translate(1393,239)" d="m0 0 3 1v9h-6z" fill="#2B65C9"/>
<path transform="translate(425,336)" d="m0 0 8 1 5 5v2l-5-1-2-3-5-2z" fill="#353533"/>
<path transform="translate(387,262)" d="m0 0h8l4 8v2l-4-1-1-7h-7z" fill="#2F3134"/>
<path transform="translate(415,365)" d="m0 0h3l4 7v2l4 1-2 1-1 2-7-9z" fill="#2C5FB7"/>
<path transform="translate(446,309)" d="m0 0 4 3 2 8-2 1-3-2z" fill="#F2F5DF"/>
<path transform="translate(442,258)" d="m0 0h1v16l-2 2-2-5 1-3h2l-1-9z" fill="#343433"/>
<path transform="translate(413,233)" d="m0 0 7 1-1 3h-12l-1-3z" fill="#304261"/>
<path transform="translate(411,457)" d="m0 0 3 3 1 5-5 1v-8z" fill="#215AC0"/>
<path transform="translate(402,336)" d="m0 0h2l5 9 3 1-3 3-4-4z" fill="#FDFDE8"/>
<path transform="translate(424,152)" d="m0 0 1 3-1 8-4-3-1-3 3-3h2z" fill="#2C2D30"/>
<path transform="translate(445,331)" d="m0 0h5l3 7v4h-2l-2-7h-3z" fill="#2C5FB9"/>
<path transform="translate(370,261)" d="m0 0 7 1v1h-5l2 7-3 2-1-3z" fill="#4072C8"/>
<path transform="translate(424,378)" d="m0 0h2l4 9v2l-4-2-2-4z" fill="#2B63C3"/>
<path transform="translate(451,372)" d="m0 0 3 3 3 5v2h-2l-1 3-3-11-2-1z" fill="#FDFDFD"/>
<path transform="translate(413,343)" d="m0 0 3 1-2 2 1 5-5-1 1-4-2-2z" fill="#6288CA"/>
<path transform="translate(451,367)" d="m0 0 3 4 3 7-1 2-5-8-1-3z" fill="#2B65C9"/>
<path transform="translate(445,348)" d="m0 0 5 1 2 6-3-2 1 4-3-1-1-6-2-1z" fill="#5382D3"/>
<path transform="translate(426,288)" d="m0 0 2 1v10h-3v-10z" fill="#2C3340"/>
<path transform="translate(426,342)" d="m0 0" fill="#2B65C9"/>
<path transform="translate(424,239)" d="m0 0" fill="#2B65C9"/>
</svg>
